<svg width="180" height="93" viewBox="0 0 180 93" fill="none" xmlns="http://www.w3.org/2000/svg">
<path d="M89.5 1C111.376 1 129 17.6245 129 38C129 58.3755 111.376 75 89.5 75C67.6238 75 50 58.3755 50 38C50 17.6245 67.6238 1 89.5 1Z" fill="#1A1717" stroke="#38F961" stroke-width="2"/>
<path d="M29.4434 36.1953C28.1478 36.1953 26.9889 35.9023 25.9668 35.3164C24.9447 34.7305 24.1374 33.8809 23.5449 32.7676C22.959 31.6543 22.666 30.3099 22.666 28.7344C22.666 27.1458 22.9622 25.7949 23.5547 24.6816C24.1536 23.5684 24.9642 22.7188 25.9863 22.1328C27.015 21.5469 28.1673 21.2539 29.4434 21.2539C30.5697 21.2539 31.582 21.4622 32.4805 21.8789C33.3854 22.2956 34.1243 22.8978 34.6973 23.6855C35.2702 24.4733 35.6217 25.4271 35.752 26.5469H32.6465C32.5293 25.7461 32.1875 25.1178 31.6211 24.6621C31.0547 24.1999 30.3516 23.9688 29.5117 23.9688C28.3919 23.9688 27.4902 24.3854 26.8066 25.2188C26.123 26.0456 25.7812 27.2174 25.7812 28.7344C25.7812 30.2839 26.123 31.4622 26.8066 32.2695C27.4967 33.0768 28.3952 33.4805 29.502 33.4805C30.3158 33.4805 31.0059 33.2656 31.5723 32.8359C32.1452 32.4062 32.5033 31.804 32.6465 31.0293H35.752C35.6413 31.9212 35.3223 32.7611 34.7949 33.5488C34.2741 34.3366 33.5612 34.9746 32.6562 35.4629C31.7578 35.9512 30.6868 36.1953 29.4434 36.1953ZM37.9688 36V21.4492H41.0352V33.4609H47.2754V36H37.9688ZM49.3359 36V21.4492H59.1406V23.9883H52.4023V27.4062H58.623V29.8965H52.4023V33.4609H59.1602V36H49.3359ZM64.082 36H60.7812L65.8105 21.4492H69.7656L74.7852 36H71.4941L70.4102 32.6797H65.1562L64.082 36ZM65.9375 30.2773H69.6289L67.8418 24.7695H67.7246L65.9375 30.2773ZM88.6914 21.4492V36H86.0254L79.707 26.8496H79.5898V36H76.5234V21.4492H79.2188L85.498 30.5996H85.625V21.4492H88.6914ZM96.6211 36.2051C94.8568 36.2051 93.4473 35.8014 92.3926 34.9941C91.3444 34.1868 90.7975 32.9987 90.752 31.4297H93.7305C93.7826 32.1589 94.069 32.709 94.5898 33.0801C95.1172 33.4447 95.7812 33.627 96.582 33.627C97.3633 33.627 97.9883 33.4609 98.457 33.1289C98.9323 32.7969 99.1699 32.3639 99.1699 31.8301C99.1699 31.3418 98.9551 30.9674 98.5254 30.707C98.0957 30.4401 97.4837 30.2122 96.6895 30.0234L95.0977 29.6328C93.8737 29.3398 92.9069 28.8743 92.1973 28.2363C91.4941 27.5918 91.1426 26.7324 91.1426 25.6582C91.1426 24.7793 91.3802 24.0111 91.8555 23.3535C92.3307 22.6895 92.9818 22.1751 93.8086 21.8105C94.6419 21.4395 95.5892 21.2539 96.6504 21.2539C97.7311 21.2539 98.6751 21.4395 99.4824 21.8105C100.29 22.1816 100.918 22.696 101.367 23.3535C101.823 24.0111 102.057 24.7695 102.07 25.6289H99.1016C99.0495 25.0625 98.8086 24.6198 98.3789 24.3008C97.9492 23.9818 97.3665 23.8223 96.6309 23.8223C95.8822 23.8223 95.306 23.9785 94.9023 24.291C94.4987 24.597 94.2969 24.9876 94.2969 25.4629C94.2969 25.9772 94.5215 26.3678 94.9707 26.6348C95.4199 26.8952 95.9603 27.1003 96.5918 27.25L97.8906 27.5723C98.737 27.7611 99.4889 28.0378 100.146 28.4023C100.804 28.7604 101.322 29.2227 101.699 29.7891C102.077 30.349 102.266 31.0326 102.266 31.8398C102.266 33.1745 101.768 34.2357 100.771 35.0234C99.7754 35.8112 98.3919 36.2051 96.6211 36.2051ZM106.836 36H103.535L108.564 21.4492H112.52L117.539 36H114.248L113.164 32.6797H107.91L106.836 36ZM108.691 30.2773H112.383L110.596 24.7695H110.479L108.691 30.2773ZM121.904 21.4492L125.41 32.5039H125.557L129.072 21.4492H132.48L127.461 36H123.506L118.477 21.4492H121.904ZM134.219 36V21.4492H144.023V23.9883H137.285V27.4062H143.506V29.8965H137.285V33.4609H144.043V36H134.219ZM146.465 36V21.4492H152.188C153.841 21.4492 155.124 21.8822 156.035 22.748C156.953 23.6139 157.412 24.7663 157.412 26.2051C157.412 27.2012 157.191 28.054 156.748 28.7637C156.305 29.4668 155.671 29.9941 154.844 30.3457L157.93 36H154.531L151.777 30.8438H149.531V36H146.465ZM149.531 28.373H151.611C153.369 28.373 154.248 27.6504 154.248 26.2051C154.248 25.4824 154.03 24.929 153.594 24.5449C153.158 24.1608 152.493 23.9688 151.602 23.9688H149.531V28.373Z" fill="#FCF8F8"/>
<path d="M62.9021 57V42.6H66.1221L73.1421 55.12L72.4021 55.3V42.6H74.9221V57H71.7021L64.6821 44.48L65.4221 44.3V57H62.9021ZM76.7143 57L82.0143 42.6H84.2543L79.2743 57H76.7143ZM87.5743 57L82.6143 42.6H84.9743L90.2543 57H87.5743ZM79.4543 51.34H87.3343V53.42H79.4543V51.34ZM98.0443 57.2C96.5243 57.2 95.211 56.9 94.1043 56.3C92.9976 55.6867 92.1443 54.8333 91.5443 53.74C90.9443 52.6333 90.6443 51.34 90.6443 49.86C90.6443 48.38 90.9443 47.0867 91.5443 45.98C92.1443 44.86 92.9776 43.9867 94.0443 43.36C95.111 42.72 96.351 42.4 97.7643 42.4C98.911 42.4 99.9376 42.6133 100.844 43.04C101.764 43.4533 102.504 44.0267 103.064 44.76C103.638 45.48 103.984 46.32 104.104 47.28H101.504C101.371 46.4267 100.971 45.7533 100.304 45.26C99.6376 44.7667 98.8043 44.52 97.8043 44.52C96.8976 44.52 96.1043 44.7333 95.4243 45.16C94.7443 45.5867 94.2176 46.1933 93.8443 46.98C93.471 47.7667 93.2843 48.7067 93.2843 49.8C93.2843 50.92 93.471 51.88 93.8443 52.68C94.231 53.4667 94.7843 54.0667 95.5043 54.48C96.2376 54.8933 97.131 55.1 98.1843 55.1C98.9976 55.1 99.6976 55 100.284 54.8C100.871 54.5867 101.344 54.2733 101.704 53.86L104.204 54.84C103.444 55.6133 102.564 56.2 101.564 56.6C100.564 57 99.391 57.2 98.0443 57.2ZM101.604 54.84V50.64L102.224 51.26H98.1643V49.22H104.204V54.84H101.604ZM105.23 57L110.53 42.6H112.77L107.79 57H105.23ZM116.09 57L111.13 42.6H113.49L118.77 57H116.09ZM107.97 51.34H115.85V53.42H107.97V51.34Z" fill="#FFEDED"/>
</svg>
